<svg width="22" height="26" viewBox="0 0 22 26" fill="none" xmlns="http://www.w3.org/2000/svg">
<path fill-rule="evenodd" clip-rule="evenodd" d="M0 8.83239L9.46036 14.2943C9.56223 14.3531 9.66904 14.3956 9.77778 14.4226V25.0158L0.674714 19.6286C0.256508 19.3811 0 18.9312 0 18.4452V8.83239ZM22.0002 8.68701V18.4451C22.0002 18.931 21.7437 19.3809 21.3255 19.6284L12.2225 25.0156V14.3296C12.2446 14.3185 12.2666 14.3067 12.2884 14.2942L22.0002 8.68701Z" fill="#FEC53D"/>
<path opacity="0.499209" fill-rule="evenodd" clip-rule="evenodd" d="M0.297363 6.18091C0.412918 6.03499 0.558769 5.91166 0.728814 5.82109L10.3538 0.694609C10.7579 0.479401 11.2425 0.479401 11.6466 0.694609L21.2716 5.82109C21.4027 5.89091 21.5194 5.98019 21.6189 6.08429L11.0661 12.1769C10.9967 12.217 10.9328 12.2628 10.8745 12.3135C10.8161 12.2628 10.7522 12.217 10.6828 12.1769L0.297363 6.18091Z" fill="#FEC53D"/>
</svg>
