<svg width="21" height="22" viewBox="0 0 21 22" fill="none" xmlns="http://www.w3.org/2000/svg">
<path d="M2.5112 18.9852H19.4336C20.0567 18.9852 20.5617 19.496 20.5617 20.126C20.5617 20.756 20.0567 21.2667 19.4336 21.2667H1.38304C0.759977 21.2667 0.254883 20.756 0.254883 20.126V1.87414C0.254883 1.24413 0.759977 0.733398 1.38304 0.733398C2.00611 0.733398 2.5112 1.24413 2.5112 1.87414V18.9852Z" fill="#4AD991"/>
<path opacity="0.5" d="M6.71877 14.0614C6.29264 14.521 5.5787 14.5443 5.12415 14.1134C4.6696 13.6825 4.64657 12.9606 5.07271 12.501L9.3033 7.93803C9.71543 7.49352 10.4003 7.45497 10.8586 7.85048L14.1977 10.7316L18.5482 5.15952C18.9343 4.66503 19.6437 4.58064 20.1327 4.97103C20.6217 5.36141 20.7052 6.07874 20.3191 6.57323L15.2424 13.0754C14.8459 13.5833 14.1114 13.6564 13.6246 13.2363L10.213 10.2926L6.71877 14.0614Z" fill="#4AD991"/>
</svg>
