<svg width="20" height="19" viewBox="0 0 20 19" fill="none" xmlns="http://www.w3.org/2000/svg">
<path d="M9.2485 2.6697H4.50975C2.93947 2.6697 1.6665 3.94263 1.6665 5.51286V14.9901C1.6665 16.5604 2.93947 17.8333 4.50975 17.8333H13.9872C15.5575 17.8333 16.8305 16.5604 16.8305 14.9901L16.8305 10.2515M6.40525 13.0946L9.85347 12.3998C10.0365 12.363 10.2046 12.2728 10.3366 12.1407L18.0558 4.4176C18.4259 4.04731 18.4256 3.4471 18.0552 3.07712L16.42 1.44383C16.0498 1.07401 15.4498 1.07426 15.0799 1.44439L7.35992 9.16834C7.22817 9.30016 7.13821 9.46789 7.10129 9.65056L6.40525 13.0946Z" stroke="#004280" stroke-width="1.5" stroke-linecap="round" stroke-linejoin="round"/>
</svg>
