<svg width="24" height="18" viewBox="0 0 24 18" fill="none" xmlns="http://www.w3.org/2000/svg">
<path opacity="0.587821" fill-rule="evenodd" clip-rule="evenodd" d="M5.15576 4.11131C5.15576 6.27135 6.90683 8.02242 9.06687 8.02242C11.2269 8.02242 12.978 6.27135 12.978 4.11131C12.978 1.95126 11.2269 0.200195 9.06687 0.200195C6.90683 0.200195 5.15576 1.95126 5.15576 4.11131ZM14.9332 8.02191C14.9332 9.64195 16.2465 10.9552 17.8666 10.9552C19.4866 10.9552 20.7999 9.64195 20.7999 8.02191C20.7999 6.40188 19.4866 5.08858 17.8666 5.08858C16.2465 5.08858 14.9332 6.40188 14.9332 8.02191Z" fill="#8280FF"/>
<path fill-rule="evenodd" clip-rule="evenodd" d="M9.0508 9.97803C4.43429 9.97803 0.64672 12.3506 0.267727 17.0173C0.247083 17.2714 0.733208 17.8002 0.978425 17.8002H17.1305C17.8651 17.8002 17.8765 17.2092 17.8651 17.018C17.5785 12.2203 13.7323 9.97803 9.0508 9.97803ZM17.4766 11.9339C18.7039 13.5679 19.4312 15.599 19.4312 17.7999H23.2008C23.7313 17.7999 23.7395 17.3566 23.7313 17.2133C23.5266 13.6545 20.8072 11.9704 17.4766 11.9339Z" fill="#8280FF"/>
</svg>
