<svg width="18" height="18" viewBox="0 0 18 18" fill="none" xmlns="http://www.w3.org/2000/svg">
<path d="M15.4976 14.0781C15.4976 14.0781 14.6286 14.9316 14.4157 15.1819C14.0688 15.5521 13.66 15.7269 13.1242 15.7269C13.0727 15.7269 13.0177 15.7269 12.9662 15.7235C11.9461 15.6583 10.9981 15.2607 10.2871 14.9214C8.34298 13.9822 6.6359 12.6488 5.21734 10.9589C4.04608 9.55007 3.26295 8.24753 2.7443 6.849C2.42487 5.99549 2.30809 5.33051 2.35961 4.70323C2.39396 4.30218 2.54852 3.96969 2.83361 3.68518L4.00487 2.51632C4.17317 2.35864 4.35178 2.27295 4.52695 2.27295C4.74334 2.27295 4.91851 2.4032 5.02843 2.51289C5.03186 2.51632 5.0353 2.51975 5.03873 2.52318C5.24825 2.71856 5.44747 2.9208 5.65699 3.13674C5.76347 3.24643 5.87338 3.35612 5.98329 3.46924L6.92099 4.40501C7.28507 4.76836 7.28507 5.10428 6.92099 5.46762C6.82138 5.56702 6.72521 5.66643 6.6256 5.7624C6.33708 6.05719 6.56373 5.831 6.2649 6.09837C6.25803 6.10522 6.25116 6.10865 6.24773 6.11551C5.95234 6.41029 6.00729 6.69823 6.06912 6.89361C6.07255 6.90389 6.07599 6.91417 6.07942 6.92446C6.32329 7.51403 6.66677 8.06933 7.18885 8.73088L7.19229 8.73431C8.14029 9.89975 9.13981 10.8081 10.2424 11.5039C10.3832 11.5931 10.5275 11.665 10.6648 11.7336C10.7885 11.7953 10.9053 11.8536 11.0049 11.9153C11.0186 11.9221 11.0324 11.9324 11.0461 11.9393C11.1629 11.9975 11.2728 12.025 11.3861 12.025C11.6712 12.025 11.8498 11.8467 11.9082 11.7884L12.5815 11.1166C12.6983 11 12.8838 10.8595 13.1001 10.8595C13.3131 10.8595 13.4883 10.9932 13.5948 11.1097C13.5982 11.1131 13.5982 11.1131 13.6016 11.1166L15.4942 13.0053C15.848 13.3549 15.4976 14.0781 15.4976 14.0781Z" stroke="#9BB8CF" stroke-width="1.2" stroke-linecap="round" stroke-linejoin="round"/>
</svg>
