<svg width="15" height="10" viewBox="0 0 15 10" fill="none" xmlns="http://www.w3.org/2000/svg">
<path d="M12.194 4.522C11.718 4.522 11.2887 4.424 10.906 4.228C10.5327 4.032 10.2387 3.76133 10.024 3.416C9.80933 3.07067 9.702 2.68333 9.702 2.254C9.702 1.82467 9.80933 1.43733 10.024 1.092C10.2387 0.746667 10.5327 0.480667 10.906 0.294C11.2887 0.0979999 11.718 0 12.194 0C12.67 0 13.0947 0.0979999 13.468 0.294C13.8507 0.480667 14.1447 0.746667 14.35 1.092C14.5647 1.43733 14.672 1.82467 14.672 2.254C14.672 2.68333 14.5647 3.07067 14.35 3.416C14.1447 3.76133 13.8507 4.032 13.468 4.228C13.0947 4.424 12.67 4.522 12.194 4.522ZM7.028 0.0839998H8.428V9.884H7.28L1.4 2.576V9.884H0V0.0839998H1.148L7.028 7.392V0.0839998ZM12.194 0.798C11.7273 0.798 11.3493 0.933333 11.06 1.204C10.78 1.47467 10.64 1.82467 10.64 2.254C10.64 2.68333 10.7847 3.03333 11.074 3.304C11.3633 3.57467 11.7367 3.71 12.194 3.71C12.6513 3.71 13.02 3.57467 13.3 3.304C13.5893 3.03333 13.734 2.68333 13.734 2.254C13.734 1.82467 13.5893 1.47467 13.3 1.204C13.02 0.933333 12.6513 0.798 12.194 0.798ZM9.982 5.628H14.406V6.538H9.982V5.628Z" fill="#9BB8CF"/>
</svg>
